<?xml version="1.0" standalone="no"?><!DOCTYPE svg PUBLIC "-//W3C//DTD SVG 1.1//EN" "http://www.w3.org/Graphics/SVG/1.1/DTD/svg11.dtd"><svg class="icon" width="81px" height="81.00px" viewBox="0 0 1024 1024" version="1.1" xmlns="http://www.w3.org/2000/svg"><path fill="#707070" d="M182.6 350.2c0-45.8 37.2-83 83.2-83s83.2 37.2 83.2 83-37.2 83-83.2 83c-45.8 0-83.2-37.2-83.2-83zM797.4 631.2C775.2 768.4 656.2 873 512.6 873S250 768.2 227.8 631.2c0 0-0.2-28.6 22.2-28.6 26.6 0 33.4 28.6 33.4 28.6 21.2 96.6 126.2 192.6 229.2 192.6s202-96 223.2-192.6c0 0 9.8-28.6 41.4-28.6 26.6 0 20.2 28.6 20.2 28.6zM674.8 350.2a41.6 41.5 0 1 0 166.4 0 41.6 41.5 0 1 0-166.4 0zM512 9.8C234.6 9.8 9.8 234.6 9.8 512s224.8 502.2 502.2 502.2 502.2-224.8 502.2-502.2S789.4 9.8 512 9.8z m0 961.2C258.4 971 53 765.6 53 512S258.4 53 512 53s459 205.4 459 459-205.4 459-459 459z" /></svg>