<?xml version="1.0" standalone="no"?><!DOCTYPE svg PUBLIC "-//W3C//DTD SVG 1.1//EN" "http://www.w3.org/Graphics/SVG/1.1/DTD/svg11.dtd"><svg class="icon" width="81px" height="81.00px" viewBox="0 0 1024 1024" version="1.1" xmlns="http://www.w3.org/2000/svg"><path fill="#707070" d="M1003.162 861.218l-52.054-35.686c0-6.69 2.27-13.38 2.27-22.306s0-15.6-2.27-22.307l47.53-37.905c4.524-4.471 4.524-8.908 2.254-13.38l-45.261-78.029c-2.253-2.235-6.776-4.471-13.568-2.235l-56.576 22.306c-11.315-8.91-24.9-15.616-38.485-22.306l-9.046-57.976c2.253-6.673-4.522-11.127-9.062-11.127h-90.539c-4.522 0-11.315 4.454-11.315 8.908l-9.045 60.195c-13.585 4.454-24.9 13.38-38.469 22.306l-54.34-22.306c-6.775-2.236-11.298 0-15.838 4.454l-45.26 78.046c-2.27 2.236 0 8.909 4.54 13.38l47.513 35.67c0 6.707-2.253 13.38-2.253 22.306s0 15.616 2.253 22.306l-47.514 37.922c-4.54 4.454-4.54 8.909-2.27 13.363l45.261 78.046c2.27 2.236 6.776 4.454 13.568 2.236l56.576-22.306c11.315 8.908 24.9 15.598 38.485 22.306l9.046 57.958c0 4.472 4.54 8.909 11.315 8.909h90.539c4.522 0 11.315-4.455 11.315-8.909l9.045-57.958c13.585-6.708 27.153-13.38 38.468-22.306l56.576 22.306c4.54 2.218 11.316 0 13.586-4.472l45.26-78.029c2.304-4.471 2.304-11.144-2.235-13.38z m-219.529 20.07c-43.008 0-79.223-35.686-79.223-78.045s36.215-78.03 79.223-78.03 79.224 35.67 79.224 78.03-36.216 78.046-79.224 78.046z m-288.7-79.155c0-150.818 122.249-273.066 273.067-273.066 11.588 0 22.938 0.955 34.133 2.355V85.333c0-28.28-22.92-51.2-51.2-51.2H68.267c-28.28 0-51.2 22.92-51.2 51.2v853.334c0 28.28 22.92 51.2 51.2 51.2h501.777c-46.439-48.948-75.11-114.927-75.11-187.734zM102.4 136.533h614.4v51.2H102.4v-51.2z m0 221.867h580.267v51.2H102.4v-51.2z m0 204.8h443.733v51.2H102.4v-51.2z m375.467 256H102.4V768h375.467v51.2z" /></svg>