<?xml version="1.0" standalone="no"?><!DOCTYPE svg PUBLIC "-//W3C//DTD SVG 1.1//EN" "http://www.w3.org/Graphics/SVG/1.1/DTD/svg11.dtd"><svg class="icon" width="81px" height="53.37px" viewBox="0 0 1554 1024" version="1.1" xmlns="http://www.w3.org/2000/svg"><path fill="#707070" d="M1119.113 77.312c-0.512 0-1.024-0.512-1.536-0.512 0 0 0 0-0.512 0 1.024 0.512 1.536 1.024 2.048 1.024 0-0.512 0-0.512 0-0.512zM901.001 114.176c-4.608 3.072-4.096 2.56-2.56 1.536 0.512-0.512 1.024-0.512 1.536-1.024 0.512 0 0.512 0 1.024-0.512zM602.505 602.624c29.696 52.224 73.216 96.768 125.952 126.464 51.712 29.184 111.104 45.056 170.496 44.032 57.856-1.536 115.712-17.408 164.864-47.616 52.224-32.768 95.232-78.848 121.344-134.656 29.184-61.44 38.912-129.536 27.136-196.608-2.56-15.36-6.656-30.208-11.264-44.544-1.536-4.096-3.072-8.192-4.096-12.288 0 0 0 0 0 0 0-0.512-0.512-1.536-0.512-2.048-0.512-2.56-0.512-6.144-1.536-8.704 0-1.536 0-3.072 0-4.096 0-4.096 0.512-7.68 0.512-11.776 0.512-4.096 1.024-8.192 1.536-12.288 0.512-2.048 0.512-4.096 1.024-6.144 0-1.024 0.512-2.048 0.512-3.072 0-1.536 0.512-3.584 0.512-4.096 0.512-2.56 1.024-5.12 1.536-7.68 1.024-4.608 2.048-9.216 2.56-14.336 2.048-10.24 4.096-20.48 6.144-30.72 4.096-22.528 8.192-45.568 9.728-68.608 2.56-43.008-4.096-91.136-36.864-122.88-5.632-5.12-11.264-9.728-17.408-14.336-1.024-1.024-2.048-1.536-3.072-2.048-2.56-1.536-5.12-3.072-7.168-4.608-2.56-1.536-4.608-2.56-7.68-3.072-31.232-14.336-66.56-15.872-99.328-5.12-37.376 12.288-70.144 34.304-101.376 57.344-13.312 9.728-26.624 19.968-39.936 30.208-3.072 2.048-6.144 4.608-9.216 6.656 0 0 0 0 0 0 0.512 0 1.024-0.512 1.024-1.024-0.512 0.512-1.536 1.024-2.048 1.536-0.512 0.512-1.024 1.024-1.536 1.024-0.512 0-0.512 0.512-1.024 0.512-5.632 3.584-11.264 7.168-17.408 9.728-2.048 1.024-4.096 2.048-6.144 2.56-1.024 0.512-2.048 0.512-3.072 1.024-1.024 0-2.048 0.512-3.072 0.512 0 0-0.512 0-0.512 0-8.192 0.512-15.872 1.536-24.064 2.56-27.648 3.584-54.784 11.776-80.384 22.016-59.904 24.576-111.104 68.608-145.92 122.368-31.744 49.664-50.176 108.032-51.2 167.424-1.536 56.832 12.8 115.712 40.96 166.4zM684.937 285.696c1.536-2.56 3.584-4.608 5.632-7.168 1.024-1.024 2.048-2.048 2.56-3.584 0.512-0.512 0.512-0.512 0.512-1.024 8.192-9.216 16.896-17.92 26.112-26.112 4.608-4.096 9.216-7.68 13.824-11.264 2.048-1.536 4.608-3.584 6.656-5.12 1.024-0.512 3.584-2.048 4.096-3.072 10.24-6.656 21.504-12.8 32.768-18.432 5.12-2.56 10.24-4.608 15.36-6.656 2.56-1.024 5.12-2.048 7.68-3.072 1.024-0.512 2.56-0.512 3.584-1.024 0 0 0.512 0 0.512 0 0 0 0.512 0 0.512-0.512 0 0 0 0-0.512 0 0 0 0 0 0 0 11.776-3.584 24.064-6.656 36.352-9.216 5.632-1.024 11.264-2.048 16.896-2.56 3.072-0.512 6.144-0.512 9.216-1.024-0.512 0-0.512 0-1.024 0 0.512 0 0.512 0 1.024 0 0 0 0 0 0 0 1.024 0 2.048 0 2.56 0 2.048 0 4.096-0.512 5.632-0.512 6.656-1.024 13.312-3.072 19.968-5.632 13.312-5.12 25.088-12.8 36.352-20.992 12.288-8.192 24.064-17.408 35.84-26.112 6.656-5.12 13.312-9.728 19.968-14.848 3.072-2.048 6.144-4.608 9.216-6.656 1.536-1.024 3.584-2.56 5.12-3.584 0.512-0.512 1.024-0.512 1.536-1.024 13.312-8.704 27.136-16.896 41.984-23.552 4.096-1.536 8.192-3.072 12.288-4.608-2.048 1.024-3.072 1.536-4.096 1.536 1.024-0.512 3.072-1.024 4.608-1.536 2.048-0.512 4.096-1.024 6.144-1.536 4.096-1.024 8.192-2.048 12.288-2.56 1.024 0 3.072 0 4.096-0.512-1.024 0-2.048 0-4.096 0 2.048 0 4.096 0 6.144-0.512 4.096 0 8.192 0 12.288 0.512 0.512 0 1.024 0 1.536 0 1.536 0.512 3.072 0.512 4.608 1.024 4.096 1.024 7.68 2.56 11.776 4.096-0.512-0.512-1.024-0.512-2.048-1.024 0.512 0.512 1.536 0.512 2.048 1.024 0 0 0 0 0.512 0 1.536 0.512 4.096 2.048 1.536 1.024 2.048 1.024 4.096 2.56 6.144 3.584 0 0 0 0 0 0 1.024 1.024 2.56 1.536 3.584 2.56 0 0 0.512 0.512 0.512 0.512 0 0 1.536 0.512 2.048 1.536 0.512 0.512 1.024 0.512 1.024 1.024 0.512 0.512 1.024 0.512 1.024 1.024-0.512 0-0.512-0.512-1.024-0.512 0.512 0.512 1.024 1.024 1.536 1.536 2.56 2.56 5.12 5.632 7.168 8.704 0 0 0.512 0.512 0.512 0.512 1.024 2.048 2.56 4.096 3.584 6.144 1.024 2.048 1.536 3.584 2.56 5.632 0 0.512 0.512 1.024 0.512 1.536 1.024 3.584 2.048 7.68 3.072 11.264 0.512 3.584 1.536 7.168 2.048 10.752 0 0.512 0.512 1.536 0.512 2.56 0 0.512 0 0.512 0 1.024 0 0.512 0 1.024 0 1.536 0-0.512 0-0.512 0-1.024 0 2.048 0 4.096 0.512 6.144 0.512 18.944-1.536 38.4-4.096 57.344-0.512 2.048-0.512 4.096-1.024 6.144 0 0.512 0 1.536-0.512 2.048-1.024 5.12-2.048 9.728-2.56 14.848-1.536 9.216-3.584 18.432-5.632 28.16-6.656 33.792-15.872 71.168-2.56 104.96 0-0.512-0.512-0.512-0.512-1.024 0 0.512 0 0.512 0.512 1.024 0.512 1.536 1.024 3.072 1.536 4.608 1.024 3.072 2.048 6.656 3.072 9.728 2.048 7.168 3.584 14.336 5.12 21.504 1.536 6.656 2.56 13.312 3.584 19.968 0 1.536 0.512 3.584 0.512 5.12 0 0 0 0 0 0 0 0 0 0 0-0.512 0 0 0 0.512 0 0.512 0 0.512 0 1.536 0 2.048 0 3.072 0.512 6.144 1.024 9.216 0.512 14.336 0.512 28.16-1.024 42.496-0.512 3.584-0.512 6.656-1.024 10.24 0 1.536-0.512 3.072-0.512 4.608 0 0 0 0 0 0.512-1.536 7.168-3.072 14.848-5.12 22.016-3.584 13.824-8.704 27.648-14.336 40.96-1.024 1.024-1.536 3.584-2.048 4.608-1.536 3.072-3.072 6.144-5.12 9.216-3.584 6.656-7.68 13.312-11.776 19.456-3.584 5.12-7.168 10.24-10.752 15.36-2.048 2.56-4.096 5.12-5.632 7.168-1.024 1.024-2.048 2.56-3.072 3.584 0.512-0.512 1.024-1.024 1.024-1.536-0.512 0.512-1.024 1.536-1.536 2.048-8.704 9.728-17.92 18.432-27.648 26.624-4.608 3.584-9.216 7.168-13.824 10.752-2.048 1.536-4.608 3.072-6.656 4.608 0 0 0.512-0.512 0.512-0.512-1.536 1.024-3.584 2.048-5.12 3.072-10.752 6.656-21.504 12.8-32.768 17.92-5.632 2.56-10.752 4.608-16.384 7.168-1.536 0.512-3.584 1.536-5.632 2.048-0.512 0.512-1.536 0.512-2.048 1.024 0 0 0 0 0 0-0.512 0-0.512 0-1.024 0.512 0 0 0.512 0 0.512-0.512-2.048 0.512-3.584 1.024-5.632 1.536-11.776 3.584-24.064 6.656-36.352 8.704-6.144 1.024-11.776 2.048-17.92 2.56-1.536 0-2.56 0-4.096 0.512-3.584 0-6.656 0.512-10.24 0.512-12.8 0.512-25.088 0-37.888-1.536-6.144-0.512-11.776-1.536-17.92-2.56 0 0 0.512 0 0.512 0-0.512 0-1.024 0-1.024 0-0.512 0-0.512 0-1.024 0-1.024 0-1.536-0.512-2.56-0.512-3.584-0.512-7.168-1.536-10.24-2.56-12.288-3.072-25.088-6.656-36.864-11.776-5.632-2.048-11.776-5.12-17.408-7.168 9.216 3.584-1.024-0.512-3.072-1.536-3.072-1.536-6.656-3.584-9.728-5.12-11.776-6.656-23.040-13.824-33.792-22.016-2.56-2.048-5.12-4.096-7.68-6.144-0.512-0.512-1.024-1.024-1.536-1.536-0.512-0.512-0.512-0.512-1.024-1.024-0.512 0-0.512-0.512-1.024-0.512 0 0 0.512 0.512 0.512 0.512-4.608-4.096-9.216-8.192-13.312-12.8-9.216-9.216-17.92-18.944-25.6-29.184-2.048-2.56-3.584-4.608-5.12-7.168 0 0 0.512 0.512 0.512 0.512-1.024-1.536-1.536-2.56-2.56-3.584-3.584-5.632-7.168-11.264-10.24-16.896-6.144-10.752-11.776-22.528-16.384-33.792-1.024-2.56-2.048-5.632-3.072-8.192 3.584 8.704-0.512-1.024-1.024-3.072-2.048-6.144-4.096-12.288-5.632-18.432-3.072-12.288-5.632-24.576-6.656-36.864 0-1.536-0.512-2.56-0.512-4.096 0-3.072-0.512-5.632-0.512-8.704-0.512-6.656-0.512-12.8-0.512-19.456 0-12.288 1.024-24.576 3.072-36.864 0 0 0 0.512 0 0.512 0-0.512 0-1.024 0-1.024 0-0.512 0-0.512 0-1.024 0-1.024 0.512-1.536 0.512-2.56 0.512-3.072 1.024-6.144 2.048-8.704 1.536-6.656 3.072-12.8 5.12-18.944 3.584-12.288 8.704-24.064 13.824-35.84-3.584 8.704 0.512-1.024 1.536-3.072 1.536-2.56 3.072-5.632 4.608-8.192 3.072-5.632 6.144-11.264 9.728-16.384 6.144-5.12 9.728-10.24 13.824-15.872zM635.273 399.872c0 0.512 0 0.512 0 1.024 0 0 0 0 0 0 0 0 0 0 0 0.512 1.024-6.144 0.512-3.584 0-1.536zM1150.345 422.4c0-0.512 0-1.536 0-2.048 0 0 0 0 0 0 0 4.608 0 3.584 0 2.048zM846.217 700.928c0.512 0 0.512 0 1.024 0 0 0 0 0 0 0 0 0 0 0 0.512 0-5.632-1.024-3.584-0.512-1.536 0zM977.801 690.176c0 0 0 0 0 0 1.024-0.512 1.536-0.512 2.56-1.024 1.024-0.512 2.048-1.024-2.56 1.024zM1089.417 613.376c1.536-1.536 2.56-3.072 0 0v0zM1039.241 658.944c0.512 0 0.512 0 0 0-5.632 3.584-1.024 1.024 0 0zM1136.521 357.888c-0.512-2.048-1.536-5.12 0 0v0zM1154.953 137.216c0 0 0-0.512 0-0.512 0-0.512 0-1.024 0-1.536 0-0.512 0-1.536-0.512-2.048-0.512-1.024-0.512-0.512 0.512 4.096zM871.817 185.344c-1.024 0-2.048 0-3.072 0 0 0 0 0 0 0 3.072 0 3.584 0 3.072 0zM1057.161 76.8c-0.512 0.512-1.024 0.512 0 0v0zM677.257 592.896c0 0 0.512 0 0 0-3.584-6.144-1.024-1.536 0 0zM1084.297 70.656c1.536 0 1.024 0 0 0v0zM721.801 642.048c0 0 0 0 0 0s0.512 0 0 0c0.512 0.512 1.024 1.024 1.536 1.024s3.584 2.56-1.536-1.024zM806.281 199.168c0 0 0 0 0 0-0.512 0-0.512 0.512-1.024 0.512-1.536 0.512-3.584 2.048 1.024-0.512zM1133.449 86.528c0 0 0 0 0 0-1.536-1.024-2.56-2.048-3.584-3.072 0 0.512 0.512 1.024 3.584 3.072zM685.449 737.792c-19.968-12.288-46.080-8.192-55.296 6.144-21.504 33.28-41.472 64-62.464 97.28-3.072 4.608-3.584 5.632-6.656 10.24-11.264 17.408-3.072 41.984 16.896 54.272 19.968 12.288 45.056 10.752 56.32-7.68 21.504-33.28 39.936-61.952 61.44-95.232 3.072-4.608 5.12-7.68 8.192-12.288 9.216-13.824 1.536-40.448-18.432-52.736zM807.817 531.968c1.536 1.024 2.56 1.024-2.048-1.536 0 0 0 0 0.512 0.512 0.512 0 1.024 0.512 1.536 1.024zM743.817 560.64c24.576 34.816 77.824 64.512 124.416 65.024 49.152 1.536 93.696-20.48 123.904-69.12 10.24-15.36-1.024-32.768-12.288-38.912-12.288-8.704-28.672-10.752-38.912 4.608-7.68 9.216-12.8 15.872-29.184 28.16-13.824 8.704-19.456 10.24-36.352 12.288-12.8 1.536-30.72 0-52.736-11.776-23.040-13.824-37.376-29.184-44.032-60.416-1.024-28.16 2.56-36.864 12.288-56.32 9.216-15.36 21.504-25.6 37.888-35.328 17.408-7.168 36.352-11.264 56.32-5.12 13.312 3.584 24.576 7.168 38.4 14.336 14.848 6.656 28.672-0.512 36.352-11.776 16.384-25.6 32.256-50.176 48.64-75.776 2.56-3.584 5.632-9.216 8.192-12.8 6.656-10.752 3.584-25.6-10.752-34.816-14.336-9.216-31.232-7.168-38.4 4.608-14.848 23.040-25.088 39.424-39.936 61.952-33.792-13.824-77.312-18.432-114.176-5.12-40.96 14.848-77.824 55.296-90.112 98.816-14.336 44.032-4.608 91.648 20.48 127.488zM776.073 486.912c-0.512-3.072-1.024-4.096-1.024-3.584 0 1.024 0.512 2.048 1.024 3.584 0 0 0 0 0 0zM909.705 550.4c1.536-0.512 5.632-2.56 0 0v0zM933.769 538.112c-0.512 0.512-0.512 0.512 0 0v0zM839.049 351.232c2.56-0.512 3.584-1.024 3.584-1.024-1.024 0.512-2.56 0.512-3.584 1.024 0 0 0 0 0 0zM814.985 363.52c-1.536 1.024-2.048 2.048 1.536-1.024 0 0-0.512 0-0.512 0.512-0.512 0-1.024 0.512-1.024 0.512zM1025.929 235.52c14.336 9.216 36.352 5.632 45.056-9.728 8.704-15.36 5.632-35.328-9.728-45.056-14.336-9.216-36.352-5.632-45.056 9.728-8.704 15.36-5.632 35.328 9.728 45.056zM1011.081 823.296c-23.040 4.096-39.936 24.576-37.376 38.912 6.144 38.912 12.288 77.824 18.432 116.736 1.024 5.632 1.024 5.632 2.048 11.264 2.56 17.408 25.6 34.304 48.64 29.696 23.040-4.096 40.448-24.576 36.864-46.080-7.168-38.912-11.264-70.144-17.408-109.056-1.024-5.632-1.536-11.264-2.56-16.896-2.048-12.8-25.6-28.672-48.64-24.576zM444.297 458.752c-5.632 1.536-6.656 2.048-11.776 3.072-37.888 10.752-69.12 18.944-107.008 29.696-19.456 5.632-29.184 28.672-23.552 51.712 5.632 23.040 31.232 36.352 48.128 31.744 5.632-1.536 5.12-1.536 10.24-3.072 37.888-10.752 70.144-18.944 108.032-29.696 18.432-5.12 31.232-29.184 25.6-51.712-5.632-23.040-34.816-35.84-49.664-31.744z" /></svg>